<mxfile host="app.diagrams.net" modified="2023-08-13T17:55:03.673Z" agent="Mozilla/5.0 (Windows NT 10.0; Win64; x64) AppleWebKit/537.36 (KHTML, like Gecko) Chrome/115.0.0.0 Safari/537.36" version="21.5.0" etag="syXm_i4Tl4rwfXrHE3uH" type="github">
  <diagram name="Page-1" id="pLRgWEJBj38_KJB1CpiX">
    <mxGraphModel>
      <root>
        <mxCell id="0" />
        <mxCell id="1" parent="0" />
      </root>
    </mxGraphModel>
  </diagram>
</mxfile>
